Coordinates
version=1
nRows=14
nColumns=42
inDegrees=yes

Units are S.I. units (second, meters, Newtons, ...)
If the header above contains a line with 'inDegrees', this indicates whether rotational values are in degrees (yes) or radians (no).

endheader
time	pelvis_tilt	pelvis_list	pelvis_rotation	pelvis_tx	pelvis_ty	pelvis_tz	hip_flexion_r	hip_adduction_r	hip_rotation_r	knee_angle_r	knee_adduction_r	knee_angle_r_beta	ankle_angle_r	subtalar_angle_r	mtp_angle_r	hip_flexion_l	hip_adduction_l	hip_rotation_l	knee_angle_l	knee_adduction_l	knee_angle_l_beta	ankle_angle_l	subtalar_angle_l	mtp_angle_l	lumbar_extension	lumbar_bending	lumbar_rotation	arm_flex_r	arm_add_r	arm_rot_r	elbow_flex_r	pro_sup_r	wrist_flex_r	wrist_dev_r	arm_flex_l	arm_add_l	arm_rot_l	elbow_flex_l	pro_sup_l	wrist_flex_l	wrist_dev_l
      2.10000000	      0.39506281	      6.87447823	     15.10857937	      0.45541255	      0.89146549	      0.41448839	     22.33311139	    -18.57021104	    -19.64989286	     37.41352159	      3.66107646	      0.65298914	     12.73367587	     -0.91670377	     -7.58869328	      0.78128785	      1.78957540	     -1.51162263	      1.93607703	      5.09658284	      0.03379092	      8.76252021	     29.35090009	     -7.58869328	    -15.71718633	     -7.00048218	     -3.65392886	    -14.81476557	    -10.95151918	    -21.29220417	     73.63163183	     90.00000001	      0.00000000	      0.00000000	      3.28470996	    -26.84393691	     18.22048510	     86.67019355	     90.00000001	      0.00000000	      0.00000000
      2.11000000	      0.57400769	      6.90808748	     15.51022010	      0.45949215	      0.89166356	      0.41531162	     21.26250064	    -18.08613507	    -20.33071236	     34.48475497	      3.51991338	      0.60187252	     12.11414896	      0.48288933	     -7.58552384	      0.31328609	      1.52522814	     -1.31133190	      1.89418857	      5.27607611	      0.03305983	      9.07955204	     29.67889499	     -7.58552384	    -15.98193916	     -6.79198429	     -3.77786698	    -14.57905916	    -10.89139634	    -20.89388533	     72.95463377	     90.00000001	      0.00000000	      0.00000000	      3.59190771	    -26.91478168	     18.58297793	     86.86205838	     90.00000001	      0.00000000	      0.00000000
      2.12000000	      0.08019361	      7.20232057	     15.84652389	      0.46328182	      0.89083926	      0.41620484	     21.24755213	    -18.11623826	    -20.25999504	     32.52708003	      3.49618199	      0.56770464	     11.55000947	      1.22539840	     -7.58456071	      0.55620072	      1.91008050	     -1.14609411	      1.96078171	      5.09413936	      0.03422210	      9.19905425	     29.78314715	     -7.58456071	    -15.57934042	     -7.08788805	     -3.87248495	    -14.48604111	    -10.72295628	    -20.67597701	     72.60304415	     90.00000001	      0.00000000	      0.00000000	      3.75186345	    -27.04960673	     18.85498031	     87.18364142	     90.00000001	      0.00000000	      0.00000000
      2.13000000	     -0.23068079	      7.38274158	     16.25555395	      0.46718046	      0.89042149	      0.41720651	     20.94502734	    -17.99112533	    -20.36019943	     30.86555175	      3.42796386	      0.53870550	     11.09874894	      1.88698403	     -7.58371630	      0.63904145	      2.08451574	     -0.84357180	      2.02593938	      4.96711919	      0.03535931	      9.40092454	     29.94474845	     -7.58371630	    -15.31668101	     -7.22437299	     -3.98974196	    -14.27953319	    -10.59116972	    -20.43648034	     72.04864709	     90.00000001	      0.00000000	      0.00000000	      3.96922643	    -27.10806113	     19.19363806	     87.41969310	     90.00000001	      0.00000000	      0.00000000
      2.14000000	     -0.27704209	      7.37860206	     16.77547671	      0.47109601	      0.89050620	      0.41827640	     20.25085640	    -17.60366328	    -20.74675835	     29.40166916	      3.25188851	      0.51315593	     10.76211010	      2.59517774	     -7.58261203	      0.53515274	      1.97929030	     -0.38909233	      2.13946132	      4.81966156	      0.03734064	      9.70503489	     30.14859851	     -7.58261203	    -15.28603467	     -7.05930736	     -4.20926066	    -13.91418587	    -10.55534454	    -20.20962009	     71.29505445	     90.00000001	      0.00000000	      0.00000000	      4.26109388	    -27.18356769	     19.57179525	     87.56108475	     90.00000001	      0.00000000	      0.00000000
      2.15000000	     -0.05620214	      7.32464304	     17.28950714	      0.47528795	      0.89105988	      0.41947062	     19.31446253	    -17.11652609	    -21.54296925	     28.38597907	      2.88716265	      0.49542880	     10.70955353	      3.26298938	     -7.58088034	      0.17871368	      1.62783400	      0.02760119	      2.31244045	      4.89679998	      0.04035970	     10.06760388	     30.28664439	     -7.58088034	    -15.50055128	     -6.77109020	     -4.38646127	    -13.57858392	    -10.48522436	    -20.00558752	     70.64245678	     90.00000001	      0.00000000	      0.00000000	      4.51209807	    -27.04606086	     19.83762691	     87.63161229	     90.00000001	      0.00000000	      0.00000000
      2.16000000	     -0.21104304	      7.44500964	     17.48712276	      0.47943838	      0.89099810	      0.42092096	     19.23063415	    -17.05673809	    -21.51418355	     28.38985942	      2.84614348	      0.49549652	     10.70715751	      3.28440254	     -7.58073829	      0.11234919	      1.63212942	      0.03806822	      2.41329342	      4.87962055	      0.04211992	     10.06664098	     30.24455760	     -7.58073829	    -15.33212055	     -6.82750752	     -4.30913930	    -13.44686096	    -10.43937235	    -19.95123703	     70.65378740	     90.00000001	      0.00000000	      0.00000000	      4.57764316	    -26.94926876	     19.85151376	     87.67744207	     90.00000001	      0.00000000	      0.00000000
      2.17000000	      0.08821053	      7.22762201	     18.13494609	      0.48343170	      0.89203688	      0.42216984	     18.11255697	    -16.34487846	    -22.47024789	     27.47482191	      2.34917040	      0.47952610	     10.97508654	      3.85901839	     -7.57754179	     -0.09199503	      1.19121397	      0.67583256	      2.86952350	      4.75280654	      0.05008263	     10.64635392	     30.17054711	     -7.57754179	    -15.60498067	     -6.34022301	     -4.59195892	    -12.92291471	    -10.43518813	    -19.69840691	     69.63525261	     90.00000001	      0.00000000	      0.00000000	      4.90141947	    -26.69154406	     20.13605472	     87.67125675	     90.00000001	      0.00000000	      0.00000000
      2.18000000	      0.02412310	      7.21321378	     18.40856392	      0.48738758	      0.89247733	      0.42358421	     17.84928584	    -16.13466705	    -22.42493741	     27.53690897	      2.30340804	      0.48060973	     11.21636872	      3.81457241	     -7.57701200	     -0.06293938	      1.15203306	      0.91537234	      3.20368837	      4.52946291	      0.05591491	     10.68914303	     30.09358851	     -7.57701200	    -15.52216216	     -6.23004319	     -4.51767475	    -12.66822268	    -10.50288558	    -19.61029284	     69.20885854	     90.00000001	      0.00000000	      0.00000000	      5.07607691	    -26.41970259	     20.27171680	     87.67201020	     90.00000001	      0.00000000	      0.00000000
      2.19000000	      0.01551322	      7.07821566	     18.80681611	      0.49133788	      0.89311825	      0.42496416	     17.39031113	    -15.85321864	    -22.57171722	     27.45518691	      2.38955488	      0.47918341	     11.63541441	      3.54944801	     -7.57606732	      0.10719087	      0.93518929	      1.19641483	      3.83215325	      4.41030208	      0.06688369	     11.01862031	     29.77790871	     -7.57606732	    -15.44479812	     -5.97450791	     -4.60076315	    -12.23316311	    -10.58056173	    -19.46547273	     68.44245508	     90.00000001	      0.00000000	      0.00000000	      5.21489607	    -26.15292295	     20.48360077	     87.49009152	     90.00000001	      0.00000000	      0.00000000
      2.20000000	      0.02270450	      6.87405804	     19.14429000	      0.49525275	      0.89381260	      0.42644305	     16.92620982	    -15.49608887	    -22.64495319	     27.34598793	      2.54085069	      0.47727753	     11.86495674	      3.17928798	     -7.57490177	      0.35957693	      0.62928551	      1.42187125	      4.60243796	      4.36168275	      0.08032770	     11.42200264	     29.27301460	     -7.57490177	    -15.37323038	     -5.65634886	     -4.61771187	    -11.86583106	    -10.71339707	    -19.35146318	     67.87352496	     90.00000001	      0.00000000	      0.00000000	      5.29944510	    -25.82556883	     20.58890431	     87.38246461	     90.00000001	      0.00000000	      0.00000000
      2.21000000	      0.00498655	      6.65604169	     19.39343860	      0.49915270	      0.89448674	      0.42804455	     16.51686099	    -15.12823873	    -22.63984640	     27.20061518	      2.73615223	      0.47474029	     12.00646630	      2.73648732	     -7.57363727	      0.68303138	      0.32296226	      1.56711755	      5.44819371	      4.32879026	      0.09508892	     11.77974806	     28.66776158	     -7.57363727	    -15.27777366	     -5.36664123	     -4.54963412	    -11.56158696	    -10.87493639	    -19.25550376	     67.40834619	     90.00000001	      0.00000000	      0.00000000	      5.33515120	    -25.46604068	     20.65714178	     87.30009123	     90.00000001	      0.00000000	      0.00000000
      2.22000000	     -0.01081493	      6.41194442	     19.58925962	      0.50296733	      0.89515966	      0.42967648	     16.12913224	    -14.74575599	    -22.61515490	     27.05081978	      2.99889221	      0.47212587	     12.14845280	      2.32843930	     -7.57244366	      1.07549667	      0.05142627	      1.65219070	      6.41937200	      4.22800382	      0.11203918	     12.05942219	     27.97003906	     -7.57244366	    -15.17683834	     -5.06463562	     -4.39659693	    -11.26787832	    -11.11535113	    -19.19442684	     66.96904083	     90.00000001	      0.00000000	      0.00000000	      5.39795598	    -25.08512590	     20.71786670	     87.25971549	     90.00000001	      0.00000000	      0.00000000
      2.23000000	     -0.06082444	      6.17692956	     19.73928825	      0.50678782	      0.89576408	      0.43143698	     15.75911532	    -14.34471708	    -22.65343827	     26.78213837	      3.21151535	      0.46743650	     12.22451325	      1.95975239	     -7.57121308	      1.55180989	     -0.21989142	      1.66521646	      7.48055129	      4.19489539	      0.13056025	     12.37025917	     27.15563085	     -7.57121308	    -15.04452847	     -4.81891222	     -4.23729907	    -11.00336771	    -11.31575312	    -19.14514448	     66.63430817	     90.00000001	      0.00000000	      0.00000000	      5.37874247	    -24.70732096	     20.79305967	     87.26290546	     90.00000001	      0.00000000	      0.00000000
